<svg id="head-icon" width="32" height="32" viewBox="0 0 32 32" fill="none" xmlns="http://www.w3.org/2000/svg">
<path fill-rule="evenodd" clip-rule="evenodd" d="M16 0C24.8307 0 32 7.16933 32 16C32 24.8307 24.8307 32 16 32C7.16933 32 0 24.8307 0 16C0 7.16933 7.16933 0 16 0ZM26.836 25.88C26.46 25.3453 25.8067 25.008 24.6707 24.7467C19.54 23.5387 19.208 22.7453 18.868 22.0013C18.5227 21.248 18.6147 20.3613 19.1413 19.3653C21.4427 15.0227 21.928 11.3333 20.5107 8.97867C19.612 7.48667 18.0107 6.66667 16 6.66667C13.972 6.66667 12.3573 7.50133 11.4547 9.01733C10.0333 11.4027 10.5307 15.076 12.8533 19.36C13.3893 20.3493 13.488 21.2347 13.1467 21.992C12.7933 22.7733 12.332 23.5787 7.32667 24.7467C6.19067 25.008 5.53733 25.3453 5.16267 25.8773C7.84533 28.82 11.7093 30.6667 16 30.6667C20.2907 30.6667 24.1533 28.82 26.836 25.88ZM27.7027 24.8373C29.5627 22.3787 30.6667 19.3173 30.6667 16C30.6667 7.90533 24.0947 1.33333 16 1.33333C7.90533 1.33333 1.33333 7.90533 1.33333 16C1.33333 19.316 2.436 22.3773 4.296 24.8347C4.84133 24.232 5.69467 23.7547 7.028 23.4467C9.728 22.8307 11.5293 22.332 11.932 21.444C12.0947 21.0813 12.0133 20.6067 11.6813 19.9947C9.12533 15.2813 8.63867 11.14 10.308 8.33467C11.4453 6.42667 13.5187 5.33333 16 5.33333C18.46 5.33333 20.5213 6.41067 21.6533 8.29067C23.3213 11.0627 22.848 15.2173 20.32 19.9893C19.9933 20.6067 19.9147 21.084 20.0813 21.448C20.488 22.3387 22.2733 22.832 24.9707 23.4467C26.304 23.7533 27.1573 24.2333 27.7027 24.8373Z" fill="#F26E6E"/>
</svg>
